# xmcd
#
# Track frame offsets:
#	150
#	14750
#	31323
#	54930
#	72621
#	88423
#	107165
#	123632
#	140792
#	159500
#	176561
#
# Disc length: 2677 seconds
#
# Revision: 0
# Processed by: cddbd v1.5.2PL0 Copyright (c) Steve Scherf et al.
# Submitted via: audiograbber 1.83.01
#
DISCID=a40a730b
DTITLE=Panga and The True Blues - Six Feet In The Ground
DYEAR=1900
DGENRE=Blues
TTITLE0=Wait On Time
TTITLE1=Who's Bin Talkin
TTITLE2=Cut Down To Size
TTITLE3=Black Cat Bone
TTITLE4=32-20 Blues
TTITLE5=Mystery Train
TTITLE6=Six Feet In The Ground
TTITLE7=Route 66
TTITLE8=I Just Wanna Make Love To You
TTITLE9=Messin With The Kid
TTITLE10=Georgia
EXTD=
EXTT0=
EXTT1=
EXTT2=
EXTT3=
EXTT4=
EXTT5=
EXTT6=
EXTT7=
EXTT8=
EXTT9=
EXTT10=
PLAYORDER=
